<?xml version="1.0" standalone="no"?>
<!DOCTYPE svg PUBLIC "-//W3C//DTD SVG 20010904//EN"
 "http://www.w3.org/TR/2001/REC-SVG-20010904/DTD/svg10.dtd">
<svg version="1.0" xmlns="http://www.w3.org/2000/svg"
 width="512.000000pt" height="512.000000pt" viewBox="0 0 512.000000 512.000000"
 preserveAspectRatio="xMidYMid meet">

<g transform="translate(0.000000,512.000000) scale(0.100000,-0.100000)"
fill="#000000" stroke="none">
<path d="M1190 5109 c-392 -25 -622 -113 -837 -322 -226 -219 -316 -451 -343
-882 -13 -211 -13 -2479 0 -2690 27 -431 117 -663 343 -882 173 -168 345 -252
605 -297 195 -33 429 -38 1737 -33 1139 3 1293 5 1395 21 307 45 492 130 677
309 189 183 283 382 329 697 16 102 18 256 21 1395 5 1308 0 1542 -33 1737
-45 260 -129 432 -297 605 -219 226 -451 316 -882 343 -188 12 -2526 11 -2715
-1z m2240 -1149 c12 -12 20 -33 20 -54 0 -30 -16 -48 -186 -206 -168 -156
-189 -172 -206 -161 -24 15 -48 -1 -41 -27 2 -10 0 -29 -6 -43 -11 -30 -112
-109 -186 -146 -27 -14 -51 -27 -53 -28 -2 -1 22 -36 52 -76 113 -150 136
-222 96 -296 -11 -21 -20 -45 -20 -53 0 -8 -12 -53 -26 -100 -40 -135 -36
-198 22 -384 27 -87 25 -106 -13 -136 -31 -24 -63 -25 -103 -5 -24 13 -34 30
-59 108 -53 166 -61 250 -34 371 l6 29 -47 -33 c-65 -47 -102 -108 -139 -228
-37 -122 -61 -152 -119 -152 -42 0 -88 34 -88 66 0 29 70 245 96 296 34 68 76
111 152 159 80 50 122 87 122 108 0 19 -88 138 -170 231 -32 36 -69 83 -84
104 -42 63 -32 129 29 186 23 22 36 25 98 26 58 1 94 9 185 43 62 23 125 41
140 39 23 -3 10 -13 -83 -65 -126 -70 -153 -88 -143 -98 15 -15 157 64 221
124 23 21 37 26 73 24 47 -2 63 9 44 32 -12 15 -7 20 250 258 97 90 120 107
148 107 19 0 40 -8 52 -20z m-999 -199 c-25 -35 -12 -55 27 -40 35 14 52 -10
52 -70 0 -42 -5 -51 -49 -93 -71 -70 -114 -82 -178 -51 -46 21 -73 67 -73 122
0 37 6 49 39 82 34 35 44 39 88 39 40 0 54 5 73 25 30 32 46 22 21 -14z
m-1428 -229 l27 -12 0 -176 0 -176 -22 16 c-52 37 -85 49 -133 49 -132 0 -206
-99 -222 -294 -9 -122 22 -251 76 -313 58 -66 172 -73 262 -18 l52 33 -7 -173
c-6 -143 -10 -175 -24 -186 -56 -43 -266 -51 -363 -13 -215 83 -341 310 -343
616 -1 350 163 595 439 655 53 12 223 6 258 -8z m2670 -5 l37 -16 0 -170 0
-170 -49 30 c-62 39 -118 47 -175 25 -57 -22 -93 -58 -125 -126 -24 -51 -26
-65 -26 -200 0 -144 0 -146 33 -213 27 -53 42 -72 78 -93 39 -23 53 -26 112
-22 56 3 75 9 116 36 l48 33 -6 -73 c-3 -40 -8 -121 -12 -179 l-6 -106 -52
-16 c-156 -49 -325 -20 -444 75 -266 213 -295 771 -53 1040 74 83 174 138 286
158 69 12 193 5 238 -13z m-2027 -8 c233 -32 357 -161 371 -385 9 -138 -38
-247 -137 -313 -37 -26 -49 -39 -45 -52 3 -10 59 -127 124 -261 l118 -243
-180 -3 c-99 -1 -182 -1 -184 1 -2 3 -46 119 -98 258 l-94 254 -1 -257 0 -258
-170 0 -170 0 0 635 0 635 194 0 c107 0 229 -5 272 -11z m2572 -280 c-3 -154
-2 -277 3 -272 4 4 50 129 103 277 52 148 97 271 99 273 2 2 81 2 175 1 l170
-3 -129 -293 c-71 -161 -129 -298 -129 -305 0 -7 65 -153 145 -325 80 -172
145 -315 145 -318 0 -2 -79 -3 -176 -2 l-177 3 -108 285 c-59 157 -112 292
-117 300 -6 10 -7 -94 -4 -287 l5 -303 -167 0 -166 0 0 625 0 625 166 0 167 0
-5 -281z m-1978 -224 c0 -11 -11 -15 -42 -15 l-43 0 3 -324 c2 -293 1 -324
-14 -330 -42 -16 -44 1 -44 319 0 167 3 310 6 319 3 9 12 16 20 16 8 0 11 6 8
15 -5 12 4 15 50 15 43 0 56 -3 56 -15z m130 1 c0 -8 7 -16 15 -20 12 -4 15
-26 15 -111 0 -99 -2 -109 -30 -158 l-30 -52 0 151 c0 103 4 154 12 162 9 9 2
12 -34 12 -44 0 -65 10 -51 24 3 3 28 6 55 6 34 0 48 -4 48 -14z m-96 -291
c-2 -266 -6 -371 -18 -382 -3 -3 -12 0 -21 7 -13 11 -15 57 -15 319 0 316 2
336 40 329 13 -3 15 -39 14 -273z m-463 -707 c50 -30 109 -90 133 -137 68
-131 52 -358 -33 -493 -17 -27 -29 -48 -27 -48 2 0 23 7 46 15 23 8 47 15 52
15 9 0 78 -137 78 -156 0 -14 -54 -37 -153 -64 -105 -29 -109 -28 -132 33
l-20 52 -95 0 c-76 0 -104 4 -141 21 -100 46 -174 147 -199 271 -7 31 -10 103
-8 162 3 90 8 115 31 166 43 92 114 156 207 186 14 5 68 7 120 6 83 -2 102 -6
141 -29z"/>
<path d="M2457 3704 c-10 -10 15 -53 28 -48 15 6 7 54 -9 54 -7 0 -15 -3 -19
-6z"/>
<path d="M2470 3613 c1 -27 1 -27 15 -9 19 25 19 36 0 36 -10 0 -15 -10 -15
-27z"/>
<path d="M1525 3242 c-3 -3 -5 -73 -5 -155 l0 -150 41 6 c72 10 119 74 119
162 0 53 -21 99 -53 116 -26 15 -94 28 -102 21z"/>
<path d="M1599 1661 c-21 -17 -24 -28 -24 -94 0 -84 22 -129 64 -135 49 -8 88
76 78 165 -8 75 -66 106 -118 64z"/>
</g>
</svg>
